<svg xmlns="http://www.w3.org/2000/svg" viewBox="0 0 512 512" role="img" aria-label="MK Redway Navigator app icon">
  <defs>
    <linearGradient id="bg" x1="0" y1="0" x2="1" y2="1">
      <stop offset="0" stop-color="#c83228"/>
      <stop offset="1" stop-color="#8f1713"/>
    </linearGradient>
  </defs>
  <!-- Full-bleed square: iOS/Android apply their own icon mask. -->
  <rect width="512" height="512" fill="url(#bg)"/>
  <!-- Route symbol kept inside the platform-safe central area. -->
  <g fill="none" stroke="#fff" stroke-linecap="round" stroke-linejoin="round">
    <path d="M138 356 C188 324 183 273 230 250 C278 227 306 262 347 233 C372 215 383 184 382 150" stroke-width="34"/>
    <path d="M230 250 C206 218 184 199 151 185" stroke-width="23" opacity=".94"/>
    <path d="M347 233 C368 263 379 288 384 316" stroke-width="23" opacity=".94"/>
  </g>
  <g>
    <circle cx="138" cy="356" r="27" fill="#fff"/><circle cx="138" cy="356" r="13" fill="#26734d"/>
    <circle cx="382" cy="150" r="27" fill="#fff"/><circle cx="382" cy="150" r="13" fill="#242426"/>
    <circle cx="230" cy="250" r="17" fill="#fff"/>
    <circle cx="347" cy="233" r="17" fill="#fff"/>
  </g>
</svg>
